<svg width="300" height="400" viewBox="0 0 300 400" fill="none" xmlns="http://www.w3.org/2000/svg">
  <!-- Background -->
  <rect width="300" height="400" fill="#FFF8F0"/>
  
  <!-- Bookshelf Frame -->
  <rect x="80" y="60" width="140" height="280" fill="#8B4513" rx="4"/>
  <rect x="85" y="65" width="130" height="270" fill="#A0522D" rx="2"/>
  
  <!-- Shelves -->
  <rect x="85" y="120" width="130" height="8" fill="#654321"/>
  <rect x="85" y="180" width="130" height="8" fill="#654321"/>
  <rect x="85" y="240" width="130" height="8" fill="#654321"/>
  <rect x="85" y="300" width="130" height="8" fill="#654321"/>
  
  <!-- Wood grain -->
  <path d="M85 80 Q150 85 215 80" stroke="#654321" stroke-width="1" fill="none"/>
  <path d="M85 100 Q150 105 215 100" stroke="#654321" stroke-width="1" fill="none"/>
  <path d="M85 140 Q150 145 215 140" stroke="#654321" stroke-width="1" fill="none"/>
  <path d="M85 200 Q150 205 215 200" stroke="#654321" stroke-width="1" fill="none"/>
  <path d="M85 260 Q150 265 215 260" stroke="#654321" stroke-width="1" fill="none"/>
  <path d="M85 320 Q150 325 215 320" stroke="#654321" stroke-width="1" fill="none"/>
  
  <!-- Books -->
  <!-- Top shelf -->
  <rect x="90" y="75" width="12" height="40" fill="#8B0000"/>
  <rect x="105" y="75" width="15" height="40" fill="#006400"/>
  <rect x="125" y="75" width="10" height="40" fill="#4B0082"/>
  <rect x="140" y="75" width="18" height="40" fill="#B8860B"/>
  <rect x="165" y="75" width="14" height="40" fill="#2F4F4F"/>
  <rect x="185" y="75" width="12" height="40" fill="#8B4513"/>
  <rect x="200" y="75" width="10" height="40" fill="#800080"/>
  
  <!-- Second shelf -->
  <rect x="90" y="135" width="16" height="40" fill="#FF4500"/>
  <rect x="110" y="135" width="12" height="40" fill="#008B8B"/>
  <rect x="127" y="135" width="14" height="40" fill="#9932CC"/>
  <rect x="145" y="135" width="20" height="40" fill="#228B22"/>
  <rect x="170" y="135" width="15" height="40" fill="#DC143C"/>
  <rect x="190" y="135" width="11" height="40" fill="#4169E1"/>
  
  <!-- Third shelf -->
  <rect x="90" y="195" width="14" height="40" fill="#FF8C00"/>
  <rect x="108" y="195" width="18" height="40" fill="#32CD32"/>
  <rect x="130" y="195" width="12" height="40" fill="#8A2BE2"/>
  <rect x="147" y="195" width="16" height="40" fill="#CD853F"/>
  <rect x="168" y="195" width="13" height="40" fill="#5F9EA0"/>
  <rect x="186" y="195" width="19" height="40" fill="#D2691E"/>
  
  <!-- Fourth shelf -->
  <rect x="90" y="255" width="13" height="40" fill="#6B8E23"/>
  <rect x="108" y="255" width="17" height="40" fill="#FF1493"/>
  <rect x="130" y="255" width="11" height="40" fill="#00CED1"/>
  <rect x="146" y="255" width="15" height="40" fill="#FFD700"/>
  <rect x="166" y="255" width="14" height="40" fill="#8B008B"/>
  <rect x="185" y="255" width="20" height="40" fill="#2E8B57"/>
  
  <!-- Decorative handle -->
  <circle cx="200" cy="90" r="3" fill="#D4AF37"/>
  
  <!-- Shadow -->
  <ellipse cx="150" cy="345" rx="80" ry="6" fill="#000" opacity="0.1"/>
  
  <!-- Label -->
  <text x="150" y="370" text-anchor="middle" fill="#7C2D12" font-family="serif" font-size="16" font-weight="bold">Walnut Bookshelf</text>
</svg>