<svg width="300" height="400" viewBox="0 0 300 400" fill="none" xmlns="http://www.w3.org/2000/svg">
  <!-- Background -->
  <rect width="300" height="400" fill="#FFF8F0"/>
  
  <!-- Table Surface -->
  <ellipse cx="150" cy="200" rx="120" ry="15" fill="#8B4513"/>
  <rect x="30" y="185" width="240" height="30" rx="15" fill="#A0522D"/>
  
  <!-- Wood grain details -->
  <path d="M50 190 Q100 195 150 190 T250 190" stroke="#654321" stroke-width="1" fill="none"/>
  <path d="M50 195 Q100 200 150 195 T250 195" stroke="#654321" stroke-width="1" fill="none"/>
  <path d="M50 205 Q100 210 150 205 T250 205" stroke="#654321" stroke-width="1" fill="none"/>
  
  <!-- Table Legs -->
  <rect x="45" y="215" width="12" height="120" fill="#8B4513"/>
  <rect x="243" y="215" width="12" height="120" fill="#8B4513"/>
  <rect x="45" y="215" width="12" height="120" fill="#654321" opacity="0.3"/>
  <rect x="243" y="215" width="12" height="120" fill="#654321" opacity="0.3"/>
  
  <!-- Leg bottom supports -->
  <rect x="40" y="330" width="22" height="8" rx="4" fill="#654321"/>
  <rect x="238" y="330" width="22" height="8" rx="4" fill="#654321"/>
  
  <!-- Decorative wood details -->
  <circle cx="150" cy="200" r="3" fill="#654321"/>
  <circle cx="120" cy="195" r="2" fill="#654321"/>
  <circle cx="180" cy="205" r="2" fill="#654321"/>
  
  <!-- Shadow -->
  <ellipse cx="150" cy="345" rx="100" ry="8" fill="#000" opacity="0.1"/>
  
  <!-- Brand elements -->
  <text x="150" y="370" text-anchor="middle" fill="#7C2D12" font-family="serif" font-size="16" font-weight="bold">Rustic Oak Dining Table</text>
</svg>