<svg width="300" height="400" viewBox="0 0 300 400" fill="none" xmlns="http://www.w3.org/2000/svg">
  <!-- Background -->
  <rect width="300" height="400" fill="#FFF8F0"/>
  
  <!-- Rocking Base -->
  <path d="M60 330 Q150 310 240 330" stroke="#8B4513" stroke-width="8" fill="none"/>
  <path d="M60 335 Q150 315 240 335" stroke="#654321" stroke-width="6" fill="none"/>
  
  <!-- Chair Legs -->
  <rect x="85" y="260" width="8" height="70" fill="#8B4513" transform="rotate(10 89 295)"/>
  <rect x="207" y="260" width="8" height="70" fill="#8B4513" transform="rotate(-10 211 295)"/>
  
  <!-- Seat -->
  <path d="M80 260 Q150 250 220 260 L220 280 Q150 270 80 280 Z" fill="#A0522D"/>
  <path d="M80 260 Q150 255 220 260" stroke="#654321" stroke-width="2" fill="none"/>
  
  <!-- Backrest -->
  <path d="M85 260 Q90 180 95 120 Q100 100 110 100 Q120 100 125 120 Q130 140 135 160 Q140 140 145 120 Q150 100 160 100 Q170 100 175 120 Q180 140 185 160 Q190 140 195 120 Q200 100 210 100 Q220 100 215 260" 
        fill="#A0522D" stroke="#654321" stroke-width="2"/>
  
  <!-- Armrests -->
  <path d="M85 220 Q70 210 65 200 Q60 190 65 180 Q75 175 85 180" fill="#8B4513"/>
  <path d="M215 220 Q230 210 235 200 Q240 190 235 180 Q225 175 215 180" fill="#8B4513"/>
  
  <!-- Wood grain details -->
  <path d="M90 270 Q150 265 210 270" stroke="#654321" stroke-width="1" fill="none"/>
  <path d="M100 150 Q130 155 160 150 Q190 155 210 150" stroke="#654321" stroke-width="1" fill="none"/>
  
  <!-- Decorative elements -->
  <circle cx="150" cy="140" r="4" fill="#654321"/>
  <circle cx="120" cy="180" r="2" fill="#654321"/>
  <circle cx="180" cy="180" r="2" fill="#654321"/>
  
  <!-- Shadow -->
  <ellipse cx="150" cy="345" rx="90" ry="8" fill="#000" opacity="0.1"/>
  
  <!-- Label -->
  <text x="150" y="370" text-anchor="middle" fill="#7C2D12" font-family="serif" font-size="16" font-weight="bold">Maple Rocking Chair</text>
</svg>